<?xml version="1.0" encoding="UTF-8"?>
<svg id="Layer_1" xmlns="http://www.w3.org/2000/svg" xmlns:svg="http://www.w3.org/2000/svg" xmlns:sodipodi="http://sodipodi.sourceforge.net/DTD/sodipodi-0.dtd" xmlns:rdf="http://www.w3.org/1999/02/22-rdf-syntax-ns#" xmlns:inkscape="http://www.inkscape.org/namespaces/inkscape" xmlns:dc="http://purl.org/dc/elements/1.1/" xmlns:cc="http://web.resource.org/cc/" version="1.1" viewBox="0 0 1544.75 822.21">
  <!-- Generator: Adobe Illustrator 29.8.5, SVG Export Plug-In . SVG Version: 2.1.1 Build 2)  -->
  <defs>
    <style>
      .st0 {
        fill: #afa3cf;
      }

      .st0, .st1, .st2, .st3 {
        stroke: #000;
      }

      .st4, .st5 {
        isolation: isolate;
      }

      .st6 {
        stroke-miterlimit: 4;
        stroke-width: 1px;
      }

      .st6, .st7, .st8 {
        fill: #e68b60;
        stroke: #b76328;
      }

      .st7 {
        stroke-miterlimit: 4;
        stroke-width: 1px;
      }

      .st1 {
        fill: #f9d566;
      }

      .st9 {
        stroke: #abc178;
        stroke-width: 6px;
      }

      .st9, .st2 {
        fill: none;
      }

      .st5 {
        font-family: Verdana, Verdana;
        font-size: 14px;
      }

      .st10 {
        fill: #abc178;
      }

      .st3 {
        fill: #5b9974;
      }
    </style>
  </defs>
  <sodipodi:namedview id="base" bordercolor="#666666" borderopacity="1.0" gridtolerance="10.0" guidetolerance="10.0" inkscape:current-layer="Layer_1" inkscape:cx="199.91051" inkscape:cy="151.14076" inkscape:pageopacity="0.0" inkscape:pageshadow="2" inkscape:window-height="1031" inkscape:window-width="1920" inkscape:window-x="-4" inkscape:window-y="-4" inkscape:zoom="1.8327287" objecttolerance="10.0" pagecolor="#ffffff"/>
  <g>
    <path id="path3" class="st0" d="M164.25,434.46c3.61-1.49,1-6.33,1-6.33,0,0-26.33-5-21-24l5.33-19s6.33-4.67,11.67-8.33c5.33-3.67,3.67-5-.67-3.67-.67-1.33,2.33-4.67,2.67-5.33.33-.67,6-13-5.33,3.67,0,1-9.67,12-4-7.67,0,0,7.33-35.33-1-9.67,0,0-2,6.33-4,2,0,0,4,13.33-8.33,46-3-2.67-5-5.33-5-5.33-1-1.67-1.67-5.67,3-14.33s7.33-14,7.33-14c0,0,4.33-8.33-1-2.33,0,0,.33-19-3,4.33,0,0-2.67,4-4.33,5.67,0,0,4.67-11-1-8.33,0,0-3-7-2.67,1,.33,8,2,9.67,1,14.33s-2.67,2.67-3-1.33-10,.33,5.33,24.67c0,0,5.33,25.33-14.33,7.33,0,0-24.67-19.67,7-43-4,3-5.67,6.33-5,2.33s0-3.67,0-3.67c0,0-3.67,7-6,8.67s-11.67,4.67,9-18.67c-4,3-11.33,8.67-4-7.67-7,11-11.33,23.67-15.33,12.67,0,0,4.33,46.33-6,16.33,0,0-3.67-6,5-35.67-3,6.67-5.67,16-5-3.33,0,0-3,1-2.33,22.33,0,0-9.33,21.33-7.33-7,0,0,3-12.67,3.33-15s-1.67.67-2.33,2-.67-5-.67-5c0,0-2,3-2.33,7s-3.33-3-4.33-4.67,6.67,11,1.33,21.67c0,0-7.67-12.67-8.33-9-.67,3.67,16,23.67,16.33,25s10,11-2,9.33c-4-.33-6.33-2.67-8.33-6s-6.33-10-6.33-10l-9.67-11-.67-15.33-1.33,3.67-2.33-2.33,2,4.67.33,6.33-2.33,1s28,28.33,5.33,17.67c0,0-8.33,2.33,10.33,7,0,0,1.33,7.67,17.33,8.67,0,0,12,13,15,25.33,0,0,3.33,26.67-12,6,0,0,3,7.33,1,7.33s-11.67-5.67-13-5.67-5.33,2-5.33,2c0,0,27,6.67,1.67,7,0,0-18,6.33-11-36,0,0-2.33,12.33-4.33.67,0,0-5.33,26.33,0,36.67,0,0,5,6.33-2.33,6.67,0,0,9-1.33,18-4,0,0-6.67,13.33-10,13.33,0,0,3,.67-.33,2.67,0,0,1.33,2.67,5-2s9-16,22-15.67c4.33,1.33,20.33,14.67-4,19.33-7.33,3-35,13-32.67,14.67s16.33-8.33,14-3.33-10,19.33-10,19.33c0,0,9.33-21.33,7.33-5,1,1.33,25.33-45.33,8,0,.33,1,4.33-6,5,3.33,0,0,.33-35.33,25.33-24.67.67,9-4.67,21.33-18.67,29.67,14.33-8.33,16.67-12,10,2,3.33-3.33,5-3,6,1.33,1.33-15,4-19.67,6.67-22,2.67,7,3.67,10,4,11.67s-1.67-23.67-2-25,13-.67,13-.67c0,0,10,19.33,5.67,28,2.33-7.33-1.67-22,16,3.67,0,0-12-13.33,7.33-8.33-6.67-5.33-19-12.67-22.33-18.33s-4-13.33,6.33-6,16.67,10.33,17.67,9.67-19.67-10,3.33-6c-14.67-6.33-39-11.67-4.33-26Z"/>
    <path id="path5" class="st3" d="M122.54,438.96c-.12-4.5,1.38-5.88,4.12-5.5s5.5,1.62,6.62,2.88,2.75,3.5,3,4.38.38,1.75.5,2.62.5,1.75.12,2.5-.88,2.38-1.88,2.5-1.62.38-2.75-.25-2.88-1.75-3.62-2.38-3.75-3.62-4.38-4.5-1.75-2.25-1.75-2.25Z"/>
    <path id="path7" class="st1" d="M164.92,435.71c2.25-4.5,1.62-6,1.12-7.38s17.62-2,30,5c0,0,11.75,4,1.25,11.5,0,0-19.5,2.88-32.38-9.12Z"/>
    <path id="path9" class="st1" d="M205.79,448.21s-3.62-1.75-2.5-5,2.12-3.25,3.12-3.62,6.75-.25,7.25-.25,19.75,2,22.38,4.25,3.5,5,3.5,6.12-.25,4.75-3.75,4.75-18.38-.25-19-.88-8.5-2.75-11-5.38Z"/>
    <path id="path11" class="st1" d="M251.79,457.46c-6.62-2.12-9.5-4.62-9.25-7.25s.75-3.62,1.88-4.25,3.88-1.38,4.62-1.62,22.38-3.38,24.5-2.88,4.75,3,5,4.5,2.62,5-2.75,7.25-9.38,3.75-13,4-11,.25-11,.25Z"/>
    <path id="path13" class="st1" d="M289.54,447.83c-6.01.38-7.88,1.12-7.75-3.38s-.38-6.12,3.25-7.88,13.88-8.5,15.5-9.25,6.88-2.38,9.25.75,2.12,4.5-.38,7.25-15.88,12.25-19.88,12.5Z"/>
    <path id="path15" class="st1" d="M311.42,425.21c-2.44-4.53-3.38-7-1.12-10.25s13.12-18.75,13.5-19.25,4.62-2.38,8.38.88,4.5,5.5,1,10.25-11.62,17.5-14.5,19-5.5,2.62-7.25-.62Z"/>
    <ellipse id="ellipse17" class="st8" cx="177.42" cy="433.33" rx="3.38" ry="2.12"/>
    <ellipse id="ellipse19" class="st8" cx="219.29" cy="447.21" rx="3.38" ry="2.12"/>
    <ellipse id="ellipse21" class="st8" cx="261.54" cy="450.21" rx="3.38" ry="2.12"/>
    <ellipse id="ellipse23" class="st7" cx="295.93" cy="436.58" rx="3.38" ry="2.13" transform="translate(-153.07 159.85) rotate(-24.22)"/>
    <ellipse id="ellipse25" class="st6" cx="321.04" cy="409.84" rx="3.37" ry="2.12" transform="translate(-197.4 457.36) rotate(-57.16)"/>
    <path id="path27" class="st0" d="M201.67,439.46c2.25.5,3.75.5,3.75.5l-2.12,3.25-4.12-.12,2.5-3.62Z"/>
    <path id="path29" class="st0" d="M239.17,447.58l4.12-.25-.88,4.12h-3.12s.25-3.38-.12-3.88Z"/>
    <path id="path31" class="st0" d="M277.67,443.96s3.38-2.5,3.62-3.12.38,5,.5,5.38-2.25.88-2.25.88l-1.88-3.12Z"/>
    <path id="path33" class="st0" d="M307.04,426.08l2.75-3.88,2.88,4.38-2,1.88s-1.75-2.12-3.62-2.38Z"/>
    <path id="path35" class="st0" d="M328.59,394.62c.04-.09.08-.18.12-.27,3.27-7.25,5.89-14.77,7.21-18.06,1.33-3.33,1.83-11.17,1.33-12s-2-6.5-5.83-5.33-2.5,0-3.67,1.83-4,2-4.17.33.5-2.17,3.33-2.67,1.33-2.5-.67-4.33-7.33-1.83-3.5-4.33,4-2.83,5.5-1.67-3.17,2,1,4.5,7.17,4,8.5,4.17,2.5.33,2.5-1.17,1.67-3,2.67-3.83,1.5-4.17,1.5-4.17c0,0-3.5-3.17-.5-2.83s4.5.5,3,2.33c.33.5-.17,2,.17,2.5s5.33-.17,5.33-.17c0,0,4.5-.33,3,2.5-.33.83-1.5,2-3.5.67-1.83.33-3.67-.33-4.17-.17s-7.17,3.17-6.5,18.17c4.5-2.5,17.67-10.33,19.33-11s9.67-9.83,9.83-10.67-1.67-3.33-1.33-4,3.5-2,4.17-2.17,1.5-2,2.33.17.67,2.17,0,2.67-1.17.83-1,1.83.33,1.67.83,1.5.83.83.83.83l-6.67,5.33s6.17-1.17,7-2,2.5-1.67,2.83-.5.67.83,0,1.67-1.83,1.67-4,2.33-3.67,1.33-5,1.5-3.83,1-3.83,1c0,0-1.33.33-4,2.5s-4.5,3.17-6.17,4.17-2.83,1.33-4.5,2.5-4.5,2.5-4.5,2.5c0,0-2.5.83-3.17,1.67s-1.83,2.17-2.17,2.67-1,2.17-1,2.17l-.67,3-2.17,2.5-.5,2.33s4.17.5,5,.5,1.5,0,2.67-.83,1-.33,2-1.5,2.17-2.33,2.67-3.33,1.67-2.17,2.67-3,2.33-2,3-2.17,3-.83,3.5-1.33,1,0,1.33-.83,1.33-2.5,1.5-3.33.17-1.17.83-1.17,1.17-.33,1.5.5,1,.67.67,1.83-.67,1.83-.67,1.83l.17.33s1.5.5,2-.33,1.33-1.33,1.33-1.33l1-1.33.83-1.5.83-.67,1.5-.33s.5,0,.83,1.17.5,1.67.5,2.17-2,2-2,2l-.67.67s-1.5.33-2,.67-2.17.83-2.17.83l-2.33.17-1.67.83-.67.5v1s.67.83,1.17,1,3.5,0,3.5,0l.67-.17-1,1.33-3.33.67s-.83.17-1.67.33-3,.5-3,.5c0,0-1.83.83-2.5,1.33s-2,.17-.83,1,.33,1.33,4,1,1.33-.67,4.67.33,4,.67,6,1.67-1.33.33,4.33,2.17,5.5,1.67,9.33,3,3.33-.5,4.5,2,6.67,2.83,1.17,2.5-4.5-.33-7.33-1.33-2.5-1.17-6.67-2.67-6.67-3.67-2.17,1.5,5.5,5.67,6.17,10.17,1,14.17,5,14.5,7.5,1.33,5.17,3.33-6.17.67-7.33-1.17-3.67-3.5-4.17-6,.33-4.5-.5-4.83-.83-.33-1.67.33-.33-.83-1.5,1.83-1.5,3.17-2.17,3.5-4.17.83-4.17-.83.5-2.17,1.33-2.33-.67,1.33,2-1,3.83-4.17,4.17-5.17,2.17-5.5-5.67-11.17-13.67-9.17-20.83-5.83c2,3,5.67,5.33,5.5,11.33,0,.67,2.83,3-.33,4-.5.17-3.5.33-1.83-4,0-2.17.5-3.5-3.83-7.33.17,3.67-.17,7.33.17,8.67s3.17,4.5-.67,5.83c-2.17-.5-3.83-1.83-1.33-6,0-3.83-4-20.33-14.17-5-2.33-.67-3.5-1.5-3.5-1.5Z"/>
    <path id="path37" class="st0" d="M404.75,434.12"/>
    <line id="line39" class="st2" x1="179.92" y1="380.46" x2="148.92" y2="420.96"/>
    <line id="line41" class="st2" x1="111.42" y1="320.96" x2="112.92" y2="367.46"/>
    <line id="line43" class="st2" x1="126.92" y1="444.46" x2="80.92" y2="502.46"/>
    <line id="line45" class="st2" x1="164.92" y1="435.71" x2="180.42" y2="464.46"/>
    <line id="line47" class="st2" x1="264.42" y1="457.46" x2="264.92" y2="485.96"/>
    <line id="line49" class="st2" x1="296.79" y1="438.52" x2="341.42" y2="461.96"/>
    <line id="line51" class="st2" x1="308.42" y1="423.46" x2="292.42" y2="371.46"/>
    <line id="line53" class="st2" x1="387.75" y1="393.29" x2="386.42" y2="337.96"/>
    <text id="text55" class="st5" transform="translate(79.42 314.46)"><tspan x="0" y="0">Dendrite</tspan></text>
    <text id="text57" class="st5" transform="translate(175.42 378.96)"><tspan x="0" y="0">Cell body</tspan></text>
    <g id="text59" class="st4">
      <text class="st5" transform="translate(262.23 351.96)"><tspan x="0" y="0">Node of</tspan></text>
      <text class="st5" transform="translate(262.7 368.76)"><tspan x="0" y="0">Ranvier</tspan></text>
    </g>
    <text id="text65" class="st5" transform="translate(335.6 328.96)"><tspan x="0" y="0">Axon Terminal</tspan></text>
    <text id="text67" class="st5" transform="translate(345.42 473.96)"><tspan x="0" y="0">Schwann cell</tspan></text>
    <text id="text69" class="st5" transform="translate(256.92 500.46)"><tspan x="0" y="0">Myelin sheath</tspan></text>
    <text id="text71" class="st5" transform="translate(177.42 478.46)"><tspan x="0" y="0">Axon</tspan></text>
    <text id="text73" class="st5" transform="translate(37.42 514.46)"><tspan x="0" y="0">Nucleus</tspan></text>
  </g>
  <g>
    <path id="path32" data-name="path3" class="st0" d="M713.54,147.84c3.61-1.49,1-6.33,1-6.33,0,0-26.33-5-21-24l5.33-19s6.33-4.67,11.67-8.33c5.33-3.67,3.67-5-.67-3.67-.67-1.33,2.33-4.67,2.67-5.33.33-.67,6-13-5.33,3.67,0,1-9.67,12-4-7.67,0,0,7.33-35.33-1-9.67,0,0-2,6.33-4,2,0,0,4,13.33-8.33,46-3-2.67-5-5.33-5-5.33-1-1.67-1.67-5.67,3-14.33s7.33-14,7.33-14c0,0,4.33-8.33-1-2.33,0,0,.33-19-3,4.33,0,0-2.67,4-4.33,5.67,0,0,4.67-11-1-8.33,0,0-3-7-2.67,1,.33,8,2,9.67,1,14.33s-2.67,2.67-3-1.33-10,.33,5.33,24.67c0,0,5.33,25.33-14.33,7.33,0,0-24.67-19.67,7-43-4,3-5.67,6.33-5,2.33s0-3.67,0-3.67c0,0-3.67,7-6,8.67s-11.67,4.67,9-18.67c-4,3-11.33,8.67-4-7.67-7,11-11.33,23.67-15.33,12.67,0,0,4.33,46.33-6,16.33,0,0-3.67-6,5-35.67-3,6.67-5.67,16-5-3.33,0,0-3,1-2.33,22.33,0,0-9.33,21.33-7.33-7,0,0,3-12.67,3.33-15s-1.67.67-2.33,2-.67-5-.67-5c0,0-2,3-2.33,7s-3.33-3-4.33-4.67,6.67,11,1.33,21.67c0,0-7.67-12.67-8.33-9-.67,3.67,16,23.67,16.33,25s10,11-2,9.33c-4-.33-6.33-2.67-8.33-6s-6.33-10-6.33-10l-9.67-11-.67-15.33-1.33,3.67-2.33-2.33,2,4.67.33,6.33-2.33,1s28,28.33,5.33,17.67c0,0-8.33,2.33,10.33,7,0,0,1.33,7.67,17.33,8.67,0,0,12,13,15,25.33,0,0,3.33,26.67-12,6,0,0,3,7.33,1,7.33s-11.67-5.67-13-5.67-5.33,2-5.33,2c0,0,27,6.67,1.67,7,0,0-18,6.33-11-36,0,0-2.33,12.33-4.33.67,0,0-5.33,26.33,0,36.67,0,0,5,6.33-2.33,6.67,0,0,9-1.33,18-4,0,0-6.67,13.33-10,13.33,0,0,3,.67-.33,2.67,0,0,1.33,2.67,5-2s9-16,22-15.67c4.33,1.33,20.33,14.67-4,19.33-7.33,3-35,13-32.67,14.67s16.33-8.33,14-3.33-10,19.33-10,19.33c0,0,9.33-21.33,7.33-5,1,1.33,25.33-45.33,8,0,.33,1,4.33-6,5,3.33,0,0,.33-35.33,25.33-24.67.67,9-4.67,21.33-18.67,29.67,14.33-8.33,16.67-12,10,2,3.33-3.33,5-3,6,1.33,1.33-15,4-19.67,6.67-22,2.67,7,3.67,10,4,11.67s-1.67-23.67-2-25,13-.67,13-.67c0,0,10,19.33,5.67,28,2.33-7.33-1.67-22,16,3.67,0,0-12-13.33,7.33-8.33-6.67-5.33-19-12.67-22.33-18.33s-4-13.33,6.33-6,16.67,10.33,17.67,9.67-19.67-10,3.33-6c-14.67-6.33-39-11.67-4.33-26Z"/>
    <path id="path51" data-name="path5" class="st3" d="M671.83,152.34c-.12-4.5,1.38-5.88,4.12-5.5s5.5,1.62,6.62,2.88,2.75,3.5,3,4.38.38,1.75.5,2.62.5,1.75.12,2.5-.88,2.38-1.88,2.5-1.62.38-2.75-.25-2.88-1.75-3.62-2.38-3.75-3.62-4.38-4.5-1.75-2.25-1.75-2.25Z"/>
    <path id="path71" data-name="path7" class="st1" d="M714.2,149.09c2.25-4.5,1.62-6,1.12-7.38s17.62-2,30,5c0,0,11.75,4,1.25,11.5,0,0-19.5,2.88-32.38-9.12Z"/>
    <path id="path91" data-name="path9" class="st1" d="M755.08,161.59s-3.62-1.75-2.5-5,2.12-3.25,3.12-3.62,6.75-.25,7.25-.25,19.75,2,22.38,4.25,3.5,5,3.5,6.12-.25,4.75-3.75,4.75-18.38-.25-19-.88-8.5-2.75-11-5.38Z"/>
    <path id="path111" data-name="path11" class="st1" d="M801.08,170.84c-6.62-2.12-9.5-4.62-9.25-7.25s.75-3.62,1.88-4.25,3.88-1.38,4.62-1.62,22.38-3.38,24.5-2.88,4.75,3,5,4.5,2.62,5-2.75,7.25-9.38,3.75-13,4-11,.25-11,.25Z"/>
    <path id="path131" data-name="path13" class="st1" d="M838.83,161.22c-6.01.38-7.88,1.12-7.75-3.38s-.38-6.12,3.25-7.88,13.88-8.5,15.5-9.25,6.88-2.38,9.25.75,2.12,4.5-.38,7.25-15.88,12.25-19.88,12.5Z"/>
    <path id="path151" data-name="path15" class="st1" d="M860.7,138.59c-2.44-4.53-3.38-7-1.12-10.25s13.12-18.75,13.5-19.25,4.62-2.38,8.38.88,4.5,5.5,1,10.25-11.62,17.5-14.5,19-5.5,2.62-7.25-.62Z"/>
    <ellipse id="ellipse171" data-name="ellipse17" class="st8" cx="726.7" cy="146.72" rx="3.38" ry="2.12"/>
    <ellipse id="ellipse191" data-name="ellipse19" class="st8" cx="768.58" cy="160.59" rx="3.38" ry="2.12"/>
    <ellipse id="ellipse211" data-name="ellipse21" class="st8" cx="810.83" cy="163.59" rx="3.38" ry="2.12"/>
    <ellipse id="ellipse231" data-name="ellipse23" class="st7" cx="845.22" cy="149.97" rx="3.38" ry="2.13" transform="translate(12.89 359.98) rotate(-24.22)"/>
    <ellipse id="ellipse251" data-name="ellipse25" class="st6" cx="870.32" cy="123.23" rx="3.37" ry="2.12" transform="translate(294.87 787.68) rotate(-57.16)"/>
    <path id="path271" data-name="path27" class="st0" d="M750.95,152.84c2.25.5,3.75.5,3.75.5l-2.12,3.25-4.12-.12,2.5-3.62Z"/>
    <path id="path291" data-name="path29" class="st0" d="M788.45,160.97l4.12-.25-.88,4.12h-3.12s.25-3.38-.12-3.88Z"/>
    <path id="path311" data-name="path31" class="st0" d="M826.95,157.34s3.38-2.5,3.62-3.12.38,5,.5,5.38-2.25.88-2.25.88l-1.88-3.12Z"/>
    <path id="path331" data-name="path33" class="st0" d="M856.33,139.47l2.75-3.88,2.88,4.38-2,1.88s-1.75-2.12-3.62-2.38Z"/>
    <path id="path351" data-name="path35" class="st0" d="M877.87,108.01c.04-.09.08-.18.12-.27,3.27-7.25,5.89-14.77,7.21-18.06,1.33-3.33,1.83-11.17,1.33-12s-2-6.5-5.83-5.33-2.5,0-3.67,1.83-4,2-4.17.33.5-2.17,3.33-2.67,1.33-2.5-.67-4.33-7.33-1.83-3.5-4.33,4-2.83,5.5-1.67-3.17,2,1,4.5,7.17,4,8.5,4.17,2.5.33,2.5-1.17,1.67-3,2.67-3.83,1.5-4.17,1.5-4.17c0,0-3.5-3.17-.5-2.83s4.5.5,3,2.33c.33.5-.17,2,.17,2.5s5.33-.17,5.33-.17c0,0,4.5-.33,3,2.5-.33.83-1.5,2-3.5.67-1.83.33-3.67-.33-4.17-.17s-7.17,3.17-6.5,18.17c4.5-2.5,17.67-10.33,19.33-11s9.67-9.83,9.83-10.67-1.67-3.33-1.33-4,3.5-2,4.17-2.17,1.5-2,2.33.17.67,2.17,0,2.67-1.17.83-1,1.83.33,1.67.83,1.5.83.83.83.83l-6.67,5.33s6.17-1.17,7-2,2.5-1.67,2.83-.5.67.83,0,1.67-1.83,1.67-4,2.33-3.67,1.33-5,1.5-3.83,1-3.83,1c0,0-1.33.33-4,2.5s-4.5,3.17-6.17,4.17-2.83,1.33-4.5,2.5-4.5,2.5-4.5,2.5c0,0-2.5.83-3.17,1.67s-1.83,2.17-2.17,2.67-1,2.17-1,2.17l-.67,3-2.17,2.5-.5,2.33s4.17.5,5,.5,1.5,0,2.67-.83,1-.33,2-1.5,2.17-2.33,2.67-3.33,1.67-2.17,2.67-3,2.33-2,3-2.17,3-.83,3.5-1.33,1,0,1.33-.83,1.33-2.5,1.5-3.33.17-1.17.83-1.17,1.17-.33,1.5.5,1,.67.67,1.83-.67,1.83-.67,1.83l.17.33s1.5.5,2-.33,1.33-1.33,1.33-1.33l1-1.33.83-1.5.83-.67,1.5-.33s.5,0,.83,1.17.5,1.67.5,2.17-2,2-2,2l-.67.67s-1.5.33-2,.67-2.17.83-2.17.83l-2.33.17-1.67.83-.67.5v1s.67.83,1.17,1,3.5,0,3.5,0l.67-.17-1,1.33-3.33.67s-.83.17-1.67.33-3,.5-3,.5c0,0-1.83.83-2.5,1.33s-2,.17-.83,1,.33,1.33,4,1,1.33-.67,4.67.33,4,.67,6,1.67-1.33.33,4.33,2.17,5.5,1.67,9.33,3,3.33-.5,4.5,2,6.67,2.83,1.17,2.5-4.5-.33-7.33-1.33-2.5-1.17-6.67-2.67-6.67-3.67-2.17,1.5,5.5,5.67,6.17,10.17,1,14.17,5,14.5,7.5,1.33,5.17,3.33-6.17.67-7.33-1.17-3.67-3.5-4.17-6,.33-4.5-.5-4.83-.83-.33-1.67.33-.33-.83-1.5,1.83-1.5,3.17-2.17,3.5-4.17.83-4.17-.83.5-2.17,1.33-2.33-.67,1.33,2-1,3.83-4.17,4.17-5.17,2.17-5.5-5.67-11.17-13.67-9.17-20.83-5.83c2,3,5.67,5.33,5.5,11.33,0,.67,2.83,3-.33,4-.5.17-3.5.33-1.83-4,0-2.17.5-3.5-3.83-7.33.17,3.67-.17,7.33.17,8.67s3.17,4.5-.67,5.83c-2.17-.5-3.83-1.83-1.33-6,0-3.83-4-20.33-14.17-5-2.33-.67-3.5-1.5-3.5-1.5Z"/>
    <path id="path371" data-name="path37" class="st0" d="M954.04,147.51"/>
    <line id="line391" data-name="line39" class="st2" x1="729.2" y1="93.84" x2="698.2" y2="134.34"/>
    <line id="line411" data-name="line41" class="st2" x1="660.7" y1="34.34" x2="662.2" y2="80.84"/>
    <line id="line431" data-name="line43" class="st2" x1="676.2" y1="157.84" x2="630.2" y2="215.84"/>
    <line id="line451" data-name="line45" class="st2" x1="714.2" y1="149.09" x2="729.7" y2="177.84"/>
    <line id="line471" data-name="line47" class="st2" x1="813.7" y1="170.84" x2="814.2" y2="199.34"/>
    <line id="line491" data-name="line49" class="st2" x1="846.08" y1="151.91" x2="890.7" y2="175.34"/>
    <line id="line511" data-name="line51" class="st2" x1="857.7" y1="136.84" x2="841.7" y2="84.84"/>
    <line id="line531" data-name="line53" class="st2" x1="937.04" y1="106.68" x2="935.7" y2="51.34"/>
    <text id="text551" data-name="text55" class="st5" transform="translate(628.7 27.84)"><tspan x="0" y="0">Dendrite</tspan></text>
    <text id="text571" data-name="text57" class="st5" transform="translate(724.7 92.34)"><tspan x="0" y="0">Cell body</tspan></text>
    <g id="text591" data-name="text59" class="st4">
      <text class="st5" transform="translate(811.52 65.34)"><tspan x="0" y="0">Node of</tspan></text>
      <text class="st5" transform="translate(811.98 82.14)"><tspan x="0" y="0">Ranvier</tspan></text>
    </g>
    <text id="text651" data-name="text65" class="st5" transform="translate(884.88 42.34)"><tspan x="0" y="0">Axon Terminal</tspan></text>
    <text id="text671" data-name="text67" class="st5" transform="translate(894.7 187.34)"><tspan x="0" y="0">Schwann cell</tspan></text>
    <text id="text691" data-name="text69" class="st5" transform="translate(806.2 213.84)"><tspan x="0" y="0">Myelin sheath</tspan></text>
    <text id="text711" data-name="text71" class="st5" transform="translate(726.7 191.84)"><tspan x="0" y="0">Axon</tspan></text>
    <text id="text731" data-name="text73" class="st5" transform="translate(586.7 227.84)"><tspan x="0" y="0">Nucleus</tspan></text>
  </g>
  <g>
    <path id="path34" data-name="path3" class="st0" d="M708.37,440.96c3.61-1.49,1-6.33,1-6.33,0,0-26.33-5-21-24l5.33-19s6.33-4.67,11.67-8.33c5.33-3.67,3.67-5-.67-3.67-.67-1.33,2.33-4.67,2.67-5.33.33-.67,6-13-5.33,3.67,0,1-9.67,12-4-7.67,0,0,7.33-35.33-1-9.67,0,0-2,6.33-4,2,0,0,4,13.33-8.33,46-3-2.67-5-5.33-5-5.33-1-1.67-1.67-5.67,3-14.33s7.33-14,7.33-14c0,0,4.33-8.33-1-2.33,0,0,.33-19-3,4.33,0,0-2.67,4-4.33,5.67,0,0,4.67-11-1-8.33,0,0-3-7-2.67,1,.33,8,2,9.67,1,14.33s-2.67,2.67-3-1.33-10,.33,5.33,24.67c0,0,5.33,25.33-14.33,7.33,0,0-24.67-19.67,7-43-4,3-5.67,6.33-5,2.33s0-3.67,0-3.67c0,0-3.67,7-6,8.67s-11.67,4.67,9-18.67c-4,3-11.33,8.67-4-7.67-7,11-11.33,23.67-15.33,12.67,0,0,4.33,46.33-6,16.33,0,0-3.67-6,5-35.67-3,6.67-5.67,16-5-3.33,0,0-3,1-2.33,22.33,0,0-9.33,21.33-7.33-7,0,0,3-12.67,3.33-15s-1.67.67-2.33,2-.67-5-.67-5c0,0-2,3-2.33,7s-3.33-3-4.33-4.67,6.67,11,1.33,21.67c0,0-7.67-12.67-8.33-9-.67,3.67,16,23.67,16.33,25s10,11-2,9.33c-4-.33-6.33-2.67-8.33-6s-6.33-10-6.33-10l-9.67-11-.67-15.33-1.33,3.67-2.33-2.33,2,4.67.33,6.33-2.33,1s28,28.33,5.33,17.67c0,0-8.33,2.33,10.33,7,0,0,1.33,7.67,17.33,8.67,0,0,12,13,15,25.33,0,0,3.33,26.67-12,6,0,0,3,7.33,1,7.33s-11.67-5.67-13-5.67-5.33,2-5.33,2c0,0,27,6.67,1.67,7,0,0-18,6.33-11-36,0,0-2.33,12.33-4.33.67,0,0-5.33,26.33,0,36.67,0,0,5,6.33-2.33,6.67,0,0,9-1.33,18-4,0,0-6.67,13.33-10,13.33,0,0,3,.67-.33,2.67,0,0,1.33,2.67,5-2s9-16,22-15.67c4.33,1.33,20.33,14.67-4,19.33-7.33,3-35,13-32.67,14.67s16.33-8.33,14-3.33-10,19.33-10,19.33c0,0,9.33-21.33,7.33-5,1,1.33,25.33-45.33,8,0,.33,1,4.33-6,5,3.33,0,0,.33-35.33,25.33-24.67.67,9-4.67,21.33-18.67,29.67,14.33-8.33,16.67-12,10,2,3.33-3.33,5-3,6,1.33,1.33-15,4-19.67,6.67-22,2.67,7,3.67,10,4,11.67s-1.67-23.67-2-25,13-.67,13-.67c0,0,10,19.33,5.67,28,2.33-7.33-1.67-22,16,3.67,0,0-12-13.33,7.33-8.33-6.67-5.33-19-12.67-22.33-18.33s-4-13.33,6.33-6,16.67,10.33,17.67,9.67-19.67-10,3.33-6c-14.67-6.33-39-11.67-4.33-26Z"/>
    <path id="path52" data-name="path5" class="st3" d="M666.66,445.46c-.12-4.5,1.38-5.88,4.12-5.5s5.5,1.62,6.62,2.88,2.75,3.5,3,4.38.38,1.75.5,2.62.5,1.75.12,2.5-.88,2.38-1.88,2.5-1.62.38-2.75-.25-2.88-1.75-3.62-2.38-3.75-3.62-4.38-4.5-1.75-2.25-1.75-2.25Z"/>
    <path id="path72" data-name="path7" class="st1" d="M709.04,442.21c2.25-4.5,1.62-6,1.12-7.38s17.62-2,30,5c0,0,11.75,4,1.25,11.5,0,0-19.5,2.88-32.38-9.12Z"/>
    <path id="path92" data-name="path9" class="st1" d="M749.91,454.71s-3.62-1.75-2.5-5,2.12-3.25,3.12-3.62,6.75-.25,7.25-.25,19.75,2,22.38,4.25,3.5,5,3.5,6.12-.25,4.75-3.75,4.75-18.38-.25-19-.88-8.5-2.75-11-5.38Z"/>
    <path id="path112" data-name="path11" class="st1" d="M795.91,463.96c-6.62-2.12-9.5-4.62-9.25-7.25s.75-3.62,1.88-4.25,3.88-1.38,4.62-1.62,22.38-3.38,24.5-2.88,4.75,3,5,4.5,2.62,5-2.75,7.25-9.38,3.75-13,4-11,.25-11,.25Z"/>
    <path id="path132" data-name="path13" class="st1" d="M833.66,454.33c-6.01.38-7.88,1.12-7.75-3.38s-.38-6.12,3.25-7.88,13.88-8.5,15.5-9.25,6.88-2.38,9.25.75,2.12,4.5-.38,7.25-15.88,12.25-19.88,12.5Z"/>
    <path id="path152" data-name="path15" class="st1" d="M855.54,431.71c-2.44-4.53-3.38-7-1.12-10.25s13.12-18.75,13.5-19.25,4.62-2.38,8.38.88,4.5,5.5,1,10.25-11.62,17.5-14.5,19-5.5,2.62-7.25-.62Z"/>
    <ellipse id="ellipse172" data-name="ellipse17" class="st8" cx="721.54" cy="439.83" rx="3.38" ry="2.12"/>
    <ellipse id="ellipse192" data-name="ellipse19" class="st8" cx="763.41" cy="453.71" rx="3.38" ry="2.12"/>
    <ellipse id="ellipse212" data-name="ellipse21" class="st8" cx="805.66" cy="456.71" rx="3.38" ry="2.12"/>
    <ellipse id="ellipse232" data-name="ellipse23" class="st7" cx="840.05" cy="443.08" rx="3.38" ry="2.13" transform="translate(-107.83 383.67) rotate(-24.22)"/>
    <ellipse id="ellipse252" data-name="ellipse25" class="st6" cx="865.15" cy="416.34" rx="3.37" ry="2.12" transform="translate(46.22 917.52) rotate(-57.16)"/>
    <path id="path272" data-name="path27" class="st0" d="M745.79,445.96c2.25.5,3.75.5,3.75.5l-2.12,3.25-4.12-.12,2.5-3.62Z"/>
    <path id="path292" data-name="path29" class="st0" d="M783.29,454.08l4.12-.25-.88,4.12h-3.12s.25-3.38-.12-3.88Z"/>
    <path id="path312" data-name="path31" class="st0" d="M821.79,450.46s3.38-2.5,3.62-3.12.38,5,.5,5.38-2.25.88-2.25.88l-1.88-3.12Z"/>
    <path id="path332" data-name="path33" class="st0" d="M851.16,432.58l2.75-3.88,2.88,4.38-2,1.88s-1.75-2.12-3.62-2.38Z"/>
    <path id="path352" data-name="path35" class="st0" d="M872.7,401.12c.04-.09.08-.18.12-.27,3.27-7.25,5.89-14.77,7.21-18.06,1.33-3.33,1.83-11.17,1.33-12s-2-6.5-5.83-5.33-2.5,0-3.67,1.83-4,2-4.17.33.5-2.17,3.33-2.67,1.33-2.5-.67-4.33-7.33-1.83-3.5-4.33,4-2.83,5.5-1.67-3.17,2,1,4.5,7.17,4,8.5,4.17,2.5.33,2.5-1.17,1.67-3,2.67-3.83,1.5-4.17,1.5-4.17c0,0-3.5-3.17-.5-2.83s4.5.5,3,2.33c.33.5-.17,2,.17,2.5s5.33-.17,5.33-.17c0,0,4.5-.33,3,2.5-.33.83-1.5,2-3.5.67-1.83.33-3.67-.33-4.17-.17s-7.17,3.17-6.5,18.17c4.5-2.5,17.67-10.33,19.33-11s9.67-9.83,9.83-10.67-1.67-3.33-1.33-4,3.5-2,4.17-2.17,1.5-2,2.33.17.67,2.17,0,2.67-1.17.83-1,1.83.33,1.67.83,1.5.83.83.83.83l-6.67,5.33s6.17-1.17,7-2,2.5-1.67,2.83-.5.67.83,0,1.67-1.83,1.67-4,2.33-3.67,1.33-5,1.5-3.83,1-3.83,1c0,0-1.33.33-4,2.5s-4.5,3.17-6.17,4.17-2.83,1.33-4.5,2.5-4.5,2.5-4.5,2.5c0,0-2.5.83-3.17,1.67s-1.83,2.17-2.17,2.67-1,2.17-1,2.17l-.67,3-2.17,2.5-.5,2.33s4.17.5,5,.5,1.5,0,2.67-.83,1-.33,2-1.5,2.17-2.33,2.67-3.33,1.67-2.17,2.67-3,2.33-2,3-2.17,3-.83,3.5-1.33,1,0,1.33-.83,1.33-2.5,1.5-3.33.17-1.17.83-1.17,1.17-.33,1.5.5,1,.67.67,1.83-.67,1.83-.67,1.83l.17.33s1.5.5,2-.33,1.33-1.33,1.33-1.33l1-1.33.83-1.5.83-.67,1.5-.33s.5,0,.83,1.17.5,1.67.5,2.17-2,2-2,2l-.67.67s-1.5.33-2,.67-2.17.83-2.17.83l-2.33.17-1.67.83-.67.5v1s.67.83,1.17,1,3.5,0,3.5,0l.67-.17-1,1.33-3.33.67s-.83.17-1.67.33-3,.5-3,.5c0,0-1.83.83-2.5,1.33s-2,.17-.83,1,.33,1.33,4,1,1.33-.67,4.67.33,4,.67,6,1.67-1.33.33,4.33,2.17,5.5,1.67,9.33,3,3.33-.5,4.5,2,6.67,2.83,1.17,2.5-4.5-.33-7.33-1.33-2.5-1.17-6.67-2.67-6.67-3.67-2.17,1.5,5.5,5.67,6.17,10.17,1,14.17,5,14.5,7.5,1.33,5.17,3.33-6.17.67-7.33-1.17-3.67-3.5-4.17-6,.33-4.5-.5-4.83-.83-.33-1.67.33-.33-.83-1.5,1.83-1.5,3.17-2.17,3.5-4.17.83-4.17-.83.5-2.17,1.33-2.33-.67,1.33,2-1,3.83-4.17,4.17-5.17,2.17-5.5-5.67-11.17-13.67-9.17-20.83-5.83c2,3,5.67,5.33,5.5,11.33,0,.67,2.83,3-.33,4-.5.17-3.5.33-1.83-4,0-2.17.5-3.5-3.83-7.33.17,3.67-.17,7.33.17,8.67s3.17,4.5-.67,5.83c-2.17-.5-3.83-1.83-1.33-6,0-3.83-4-20.33-14.17-5-2.33-.67-3.5-1.5-3.5-1.5Z"/>
    <path id="path372" data-name="path37" class="st0" d="M948.87,440.62"/>
    <line id="line392" data-name="line39" class="st2" x1="724.04" y1="386.96" x2="693.04" y2="427.46"/>
    <line id="line412" data-name="line41" class="st2" x1="655.54" y1="327.46" x2="657.04" y2="373.96"/>
    <line id="line432" data-name="line43" class="st2" x1="671.04" y1="450.96" x2="625.04" y2="508.96"/>
    <line id="line452" data-name="line45" class="st2" x1="709.04" y1="442.21" x2="724.54" y2="470.96"/>
    <line id="line472" data-name="line47" class="st2" x1="808.54" y1="463.96" x2="809.04" y2="492.46"/>
    <line id="line492" data-name="line49" class="st2" x1="840.91" y1="445.02" x2="885.54" y2="468.46"/>
    <line id="line512" data-name="line51" class="st2" x1="852.54" y1="429.96" x2="836.54" y2="377.96"/>
    <line id="line532" data-name="line53" class="st2" x1="931.87" y1="399.79" x2="930.54" y2="344.46"/>
    <text id="text552" data-name="text55" class="st5" transform="translate(623.54 320.96)"><tspan x="0" y="0">Dendrite</tspan></text>
    <text id="text572" data-name="text57" class="st5" transform="translate(719.54 385.46)"><tspan x="0" y="0">Cell body</tspan></text>
    <g id="text592" data-name="text59" class="st4">
      <text class="st5" transform="translate(806.35 358.46)"><tspan x="0" y="0">Node of</tspan></text>
      <text class="st5" transform="translate(806.82 375.26)"><tspan x="0" y="0">Ranvier</tspan></text>
    </g>
    <text id="text652" data-name="text65" class="st5" transform="translate(879.71 335.46)"><tspan x="0" y="0">Axon Terminal</tspan></text>
    <text id="text672" data-name="text67" class="st5" transform="translate(889.54 480.46)"><tspan x="0" y="0">Schwann cell</tspan></text>
    <text id="text692" data-name="text69" class="st5" transform="translate(801.04 506.96)"><tspan x="0" y="0">Myelin sheath</tspan></text>
    <text id="text712" data-name="text71" class="st5" transform="translate(721.54 484.96)"><tspan x="0" y="0">Axon</tspan></text>
    <text id="text732" data-name="text73" class="st5" transform="translate(581.54 520.96)"><tspan x="0" y="0">Nucleus</tspan></text>
  </g>
  <g>
    <path id="path36" data-name="path3" class="st0" d="M686.45,721.98c3.61-1.49,1-6.33,1-6.33,0,0-26.33-5-21-24l5.33-19s6.33-4.67,11.67-8.33c5.33-3.67,3.67-5-.67-3.67-.67-1.33,2.33-4.67,2.67-5.33.33-.67,6-13-5.33,3.67,0,1-9.67,12-4-7.67,0,0,7.33-35.33-1-9.67,0,0-2,6.33-4,2,0,0,4,13.33-8.33,46-3-2.67-5-5.33-5-5.33-1-1.67-1.67-5.67,3-14.33s7.33-14,7.33-14c0,0,4.33-8.33-1-2.33,0,0,.33-19-3,4.33,0,0-2.67,4-4.33,5.67,0,0,4.67-11-1-8.33,0,0-3-7-2.67,1,.33,8,2,9.67,1,14.33s-2.67,2.67-3-1.33-10,.33,5.33,24.67c0,0,5.33,25.33-14.33,7.33,0,0-24.67-19.67,7-43-4,3-5.67,6.33-5,2.33s0-3.67,0-3.67c0,0-3.67,7-6,8.67s-11.67,4.67,9-18.67c-4,3-11.33,8.67-4-7.67-7,11-11.33,23.67-15.33,12.67,0,0,4.33,46.33-6,16.33,0,0-3.67-6,5-35.67-3,6.67-5.67,16-5-3.33,0,0-3,1-2.33,22.33,0,0-9.33,21.33-7.33-7,0,0,3-12.67,3.33-15s-1.67.67-2.33,2-.67-5-.67-5c0,0-2,3-2.33,7s-3.33-3-4.33-4.67,6.67,11,1.33,21.67c0,0-7.67-12.67-8.33-9-.67,3.67,16,23.67,16.33,25s10,11-2,9.33c-4-.33-6.33-2.67-8.33-6s-6.33-10-6.33-10l-9.67-11-.67-15.33-1.33,3.67-2.33-2.33,2,4.67.33,6.33-2.33,1s28,28.33,5.33,17.67c0,0-8.33,2.33,10.33,7,0,0,1.33,7.67,17.33,8.67,0,0,12,13,15,25.33,0,0,3.33,26.67-12,6,0,0,3,7.33,1,7.33s-11.67-5.67-13-5.67-5.33,2-5.33,2c0,0,27,6.67,1.67,7,0,0-18,6.33-11-36,0,0-2.33,12.33-4.33.67,0,0-5.33,26.33,0,36.67,0,0,5,6.33-2.33,6.67,0,0,9-1.33,18-4,0,0-6.67,13.33-10,13.33,0,0,3,.67-.33,2.67,0,0,1.33,2.67,5-2s9-16,22-15.67c4.33,1.33,20.33,14.67-4,19.33-7.33,3-35,13-32.67,14.67s16.33-8.33,14-3.33-10,19.33-10,19.33c0,0,9.33-21.33,7.33-5,1,1.33,25.33-45.33,8,0,.33,1,4.33-6,5,3.33,0,0,.33-35.33,25.33-24.67.67,9-4.67,21.33-18.67,29.67,14.33-8.33,16.67-12,10,2,3.33-3.33,5-3,6,1.33,1.33-15,4-19.67,6.67-22,2.67,7,3.67,10,4,11.67s-1.67-23.67-2-25,13-.67,13-.67c0,0,10,19.33,5.67,28,2.33-7.33-1.67-22,16,3.67,0,0-12-13.33,7.33-8.33-6.67-5.33-19-12.67-22.33-18.33s-4-13.33,6.33-6,16.67,10.33,17.67,9.67-19.67-10,3.33-6c-14.67-6.33-39-11.67-4.33-26Z"/>
    <path id="path53" data-name="path5" class="st3" d="M644.75,726.48c-.12-4.5,1.38-5.88,4.12-5.5s5.5,1.62,6.62,2.88,2.75,3.5,3,4.38.38,1.75.5,2.62.5,1.75.12,2.5-.88,2.38-1.88,2.5-1.62.38-2.75-.25-2.88-1.75-3.62-2.38-3.75-3.62-4.38-4.5-1.75-2.25-1.75-2.25Z"/>
    <path id="path73" data-name="path7" class="st1" d="M687.12,723.23c2.25-4.5,1.62-6,1.12-7.38s17.62-2,30,5c0,0,11.75,4,1.25,11.5,0,0-19.5,2.88-32.38-9.12Z"/>
    <path id="path93" data-name="path9" class="st1" d="M728,735.73s-3.62-1.75-2.5-5,2.12-3.25,3.12-3.62,6.75-.25,7.25-.25,19.75,2,22.38,4.25,3.5,5,3.5,6.12-.25,4.75-3.75,4.75-18.38-.25-19-.88-8.5-2.75-11-5.38Z"/>
    <path id="path113" data-name="path11" class="st1" d="M774,744.98c-6.62-2.12-9.5-4.62-9.25-7.25s.75-3.62,1.88-4.25,3.88-1.38,4.62-1.62,22.38-3.38,24.5-2.88,4.75,3,5,4.5,2.62,5-2.75,7.25-9.38,3.75-13,4-11,.25-11,.25Z"/>
    <path id="path133" data-name="path13" class="st1" d="M811.75,735.36c-6.01.38-7.88,1.12-7.75-3.38s-.38-6.12,3.25-7.88,13.88-8.5,15.5-9.25,6.88-2.38,9.25.75,2.12,4.5-.38,7.25-15.88,12.25-19.88,12.5Z"/>
    <path id="path153" data-name="path15" class="st1" d="M833.62,712.73c-2.44-4.53-3.38-7-1.12-10.25s13.12-18.75,13.5-19.25,4.62-2.38,8.38.88,4.5,5.5,1,10.25-11.62,17.5-14.5,19-5.5,2.62-7.25-.62Z"/>
    <ellipse id="ellipse173" data-name="ellipse17" class="st8" cx="699.62" cy="720.86" rx="3.38" ry="2.12"/>
    <ellipse id="ellipse193" data-name="ellipse19" class="st8" cx="741.5" cy="734.73" rx="3.38" ry="2.12"/>
    <ellipse id="ellipse213" data-name="ellipse21" class="st8" cx="783.75" cy="737.73" rx="3.38" ry="2.12"/>
    <ellipse id="ellipse233" data-name="ellipse23" class="st7" cx="818.13" cy="724.1" rx="3.38" ry="2.13" transform="translate(-225.06 399.42) rotate(-24.22)"/>
    <ellipse id="ellipse253" data-name="ellipse25" class="st6" cx="843.24" cy="697.36" rx="3.37" ry="2.12" transform="translate(-199.94 1027.75) rotate(-57.16)"/>
    <path id="path273" data-name="path27" class="st0" d="M723.87,726.98c2.25.5,3.75.5,3.75.5l-2.12,3.25-4.12-.12,2.5-3.62Z"/>
    <path id="path293" data-name="path29" class="st0" d="M761.37,735.11l4.12-.25-.88,4.12h-3.12s.25-3.38-.12-3.88Z"/>
    <path id="path313" data-name="path31" class="st0" d="M799.87,731.48s3.38-2.5,3.62-3.12.38,5,.5,5.38-2.25.88-2.25.88l-1.88-3.12Z"/>
    <path id="path333" data-name="path33" class="st0" d="M829.25,713.61l2.75-3.88,2.88,4.38-2,1.88s-1.75-2.12-3.62-2.38Z"/>
    <path id="path353" data-name="path35" class="st0" d="M850.79,682.15c.04-.09.08-.18.12-.27,3.27-7.25,5.89-14.77,7.21-18.06,1.33-3.33,1.83-11.17,1.33-12s-2-6.5-5.83-5.33-2.5,0-3.67,1.83-4,2-4.17.33.5-2.17,3.33-2.67,1.33-2.5-.67-4.33-7.33-1.83-3.5-4.33,4-2.83,5.5-1.67-3.17,2,1,4.5,7.17,4,8.5,4.17,2.5.33,2.5-1.17,1.67-3,2.67-3.83,1.5-4.17,1.5-4.17c0,0-3.5-3.17-.5-2.83s4.5.5,3,2.33c.33.5-.17,2,.17,2.5s5.33-.17,5.33-.17c0,0,4.5-.33,3,2.5-.33.83-1.5,2-3.5.67-1.83.33-3.67-.33-4.17-.17s-7.17,3.17-6.5,18.17c4.5-2.5,17.67-10.33,19.33-11s9.67-9.83,9.83-10.67-1.67-3.33-1.33-4,3.5-2,4.17-2.17,1.5-2,2.33.17.67,2.17,0,2.67-1.17.83-1,1.83.33,1.67.83,1.5.83.83.83.83l-6.67,5.33s6.17-1.17,7-2,2.5-1.67,2.83-.5.67.83,0,1.67-1.83,1.67-4,2.33-3.67,1.33-5,1.5-3.83,1-3.83,1c0,0-1.33.33-4,2.5s-4.5,3.17-6.17,4.17-2.83,1.33-4.5,2.5-4.5,2.5-4.5,2.5c0,0-2.5.83-3.17,1.67s-1.83,2.17-2.17,2.67-1,2.17-1,2.17l-.67,3-2.17,2.5-.5,2.33s4.17.5,5,.5,1.5,0,2.67-.83,1-.33,2-1.5,2.17-2.33,2.67-3.33,1.67-2.17,2.67-3,2.33-2,3-2.17,3-.83,3.5-1.33,1,0,1.33-.83,1.33-2.5,1.5-3.33.17-1.17.83-1.17,1.17-.33,1.5.5,1,.67.67,1.83-.67,1.83-.67,1.83l.17.33s1.5.5,2-.33,1.33-1.33,1.33-1.33l1-1.33.83-1.5.83-.67,1.5-.33s.5,0,.83,1.17.5,1.67.5,2.17-2,2-2,2l-.67.67s-1.5.33-2,.67-2.17.83-2.17.83l-2.33.17-1.67.83-.67.5v1s.67.83,1.17,1,3.5,0,3.5,0l.67-.17-1,1.33-3.33.67s-.83.17-1.67.33-3,.5-3,.5c0,0-1.83.83-2.5,1.33s-2,.17-.83,1,.33,1.33,4,1,1.33-.67,4.67.33,4,.67,6,1.67-1.33.33,4.33,2.17,5.5,1.67,9.33,3,3.33-.5,4.5,2,6.67,2.83,1.17,2.5-4.5-.33-7.33-1.33-2.5-1.17-6.67-2.67-6.67-3.67-2.17,1.5,5.5,5.67,6.17,10.17,1,14.17,5,14.5,7.5,1.33,5.17,3.33-6.17.67-7.33-1.17-3.67-3.5-4.17-6,.33-4.5-.5-4.83-.83-.33-1.67.33-.33-.83-1.5,1.83-1.5,3.17-2.17,3.5-4.17.83-4.17-.83.5-2.17,1.33-2.33-.67,1.33,2-1,3.83-4.17,4.17-5.17,2.17-5.5-5.67-11.17-13.67-9.17-20.83-5.83c2,3,5.67,5.33,5.5,11.33,0,.67,2.83,3-.33,4-.5.17-3.5.33-1.83-4,0-2.17.5-3.5-3.83-7.33.17,3.67-.17,7.33.17,8.67s3.17,4.5-.67,5.83c-2.17-.5-3.83-1.83-1.33-6,0-3.83-4-20.33-14.17-5-2.33-.67-3.5-1.5-3.5-1.5Z"/>
    <path id="path373" data-name="path37" class="st0" d="M926.95,721.65"/>
    <line id="line393" data-name="line39" class="st2" x1="702.12" y1="667.98" x2="671.12" y2="708.48"/>
    <line id="line413" data-name="line41" class="st2" x1="633.62" y1="608.48" x2="635.12" y2="654.98"/>
    <line id="line433" data-name="line43" class="st2" x1="649.12" y1="731.98" x2="603.12" y2="789.98"/>
    <line id="line453" data-name="line45" class="st2" x1="687.12" y1="723.23" x2="702.62" y2="751.98"/>
    <line id="line473" data-name="line47" class="st2" x1="786.62" y1="744.98" x2="787.12" y2="773.48"/>
    <line id="line493" data-name="line49" class="st2" x1="818.99" y1="726.04" x2="863.62" y2="749.48"/>
    <line id="line513" data-name="line51" class="st2" x1="830.62" y1="710.98" x2="814.62" y2="658.98"/>
    <line id="line533" data-name="line53" class="st2" x1="909.95" y1="680.81" x2="908.62" y2="625.48"/>
    <text id="text553" data-name="text55" class="st5" transform="translate(601.62 601.98)"><tspan x="0" y="0">Dendrite</tspan></text>
    <text id="text573" data-name="text57" class="st5" transform="translate(697.62 666.48)"><tspan x="0" y="0">Cell body</tspan></text>
    <g id="text593" data-name="text59" class="st4">
      <text class="st5" transform="translate(784.43 639.48)"><tspan x="0" y="0">Node of</tspan></text>
      <text class="st5" transform="translate(784.9 656.28)"><tspan x="0" y="0">Ranvier</tspan></text>
    </g>
    <text id="text653" data-name="text65" class="st5" transform="translate(857.8 616.48)"><tspan x="0" y="0">Axon Terminal</tspan></text>
    <text id="text673" data-name="text67" class="st5" transform="translate(867.62 761.48)"><tspan x="0" y="0">Schwann cell</tspan></text>
    <text id="text693" data-name="text69" class="st5" transform="translate(779.12 787.98)"><tspan x="0" y="0">Myelin sheath</tspan></text>
    <text id="text713" data-name="text71" class="st5" transform="translate(699.62 765.98)"><tspan x="0" y="0">Axon</tspan></text>
    <text id="text733" data-name="text73" class="st5" transform="translate(559.62 801.98)"><tspan x="0" y="0">Nucleus</tspan></text>
  </g>
  <g>
    <path id="path38" data-name="path3" class="st0" d="M1252.49,439.4c3.61-1.49,1-6.33,1-6.33,0,0-26.33-5-21-24l5.33-19s6.33-4.67,11.67-8.33c5.33-3.67,3.67-5-.67-3.67-.67-1.33,2.33-4.67,2.67-5.33.33-.67,6-13-5.33,3.67,0,1-9.67,12-4-7.67,0,0,7.33-35.33-1-9.67,0,0-2,6.33-4,2,0,0,4,13.33-8.33,46-3-2.67-5-5.33-5-5.33-1-1.67-1.67-5.67,3-14.33s7.33-14,7.33-14c0,0,4.33-8.33-1-2.33,0,0,.33-19-3,4.33,0,0-2.67,4-4.33,5.67,0,0,4.67-11-1-8.33,0,0-3-7-2.67,1,.33,8,2,9.67,1,14.33s-2.67,2.67-3-1.33-10,.33,5.33,24.67c0,0,5.33,25.33-14.33,7.33,0,0-24.67-19.67,7-43-4,3-5.67,6.33-5,2.33s0-3.67,0-3.67c0,0-3.67,7-6,8.67s-11.67,4.67,9-18.67c-4,3-11.33,8.67-4-7.67-7,11-11.33,23.67-15.33,12.67,0,0,4.33,46.33-6,16.33,0,0-3.67-6,5-35.67-3,6.67-5.67,16-5-3.33,0,0-3,1-2.33,22.33,0,0-9.33,21.33-7.33-7,0,0,3-12.67,3.33-15s-1.67.67-2.33,2-.67-5-.67-5c0,0-2,3-2.33,7s-3.33-3-4.33-4.67,6.67,11,1.33,21.67c0,0-7.67-12.67-8.33-9-.67,3.67,16,23.67,16.33,25s10,11-2,9.33c-4-.33-6.33-2.67-8.33-6s-6.33-10-6.33-10l-9.67-11-.67-15.33-1.33,3.67-2.33-2.33,2,4.67.33,6.33-2.33,1s28,28.33,5.33,17.67c0,0-8.33,2.33,10.33,7,0,0,1.33,7.67,17.33,8.67,0,0,12,13,15,25.33,0,0,3.33,26.67-12,6,0,0,3,7.33,1,7.33s-11.67-5.67-13-5.67-5.33,2-5.33,2c0,0,27,6.67,1.67,7,0,0-18,6.33-11-36,0,0-2.33,12.33-4.33.67,0,0-5.33,26.33,0,36.67,0,0,5,6.33-2.33,6.67,0,0,9-1.33,18-4,0,0-6.67,13.33-10,13.33,0,0,3,.67-.33,2.67,0,0,1.33,2.67,5-2s9-16,22-15.67c4.33,1.33,20.33,14.67-4,19.33-7.33,3-35,13-32.67,14.67s16.33-8.33,14-3.33-10,19.33-10,19.33c0,0,9.33-21.33,7.33-5,1,1.33,25.33-45.33,8,0,.33,1,4.33-6,5,3.33,0,0,.33-35.33,25.33-24.67.67,9-4.67,21.33-18.67,29.67,14.33-8.33,16.67-12,10,2,3.33-3.33,5-3,6,1.33,1.33-15,4-19.67,6.67-22,2.67,7,3.67,10,4,11.67s-1.67-23.67-2-25,13-.67,13-.67c0,0,10,19.33,5.67,28,2.33-7.33-1.67-22,16,3.67,0,0-12-13.33,7.33-8.33-6.67-5.33-19-12.67-22.33-18.33s-4-13.33,6.33-6,16.67,10.33,17.67,9.67-19.67-10,3.33-6c-14.67-6.33-39-11.67-4.33-26Z"/>
    <path id="path54" data-name="path5" class="st3" d="M1210.78,443.9c-.12-4.5,1.38-5.88,4.12-5.5s5.5,1.62,6.62,2.88,2.75,3.5,3,4.38.38,1.75.5,2.62.5,1.75.12,2.5-.88,2.38-1.88,2.5-1.62.38-2.75-.25-2.88-1.75-3.62-2.38-3.75-3.62-4.38-4.5-1.75-2.25-1.75-2.25Z"/>
    <path id="path74" data-name="path7" class="st1" d="M1253.15,440.65c2.25-4.5,1.62-6,1.12-7.38s17.62-2,30,5c0,0,11.75,4,1.25,11.5,0,0-19.5,2.88-32.38-9.12Z"/>
    <path id="path94" data-name="path9" class="st1" d="M1294.03,453.15s-3.62-1.75-2.5-5,2.12-3.25,3.12-3.62,6.75-.25,7.25-.25,19.75,2,22.38,4.25,3.5,5,3.5,6.12-.25,4.75-3.75,4.75-18.38-.25-19-.88-8.5-2.75-11-5.38Z"/>
    <path id="path114" data-name="path11" class="st1" d="M1340.03,462.4c-6.62-2.12-9.5-4.62-9.25-7.25s.75-3.62,1.88-4.25,3.88-1.38,4.62-1.62,22.38-3.38,24.5-2.88,4.75,3,5,4.5,2.62,5-2.75,7.25-9.38,3.75-13,4-11,.25-11,.25Z"/>
    <path id="path134" data-name="path13" class="st1" d="M1377.78,452.78c-6.01.38-7.88,1.12-7.75-3.38s-.38-6.12,3.25-7.88,13.88-8.5,15.5-9.25,6.88-2.38,9.25.75,2.12,4.5-.38,7.25-15.88,12.25-19.88,12.5Z"/>
    <path id="path154" data-name="path15" class="st1" d="M1399.65,430.15c-2.44-4.53-3.38-7-1.12-10.25s13.12-18.75,13.5-19.25,4.62-2.38,8.38.88,4.5,5.5,1,10.25-11.62,17.5-14.5,19-5.5,2.62-7.25-.62Z"/>
    <ellipse id="ellipse174" data-name="ellipse17" class="st8" cx="1265.65" cy="438.28" rx="3.38" ry="2.12"/>
    <ellipse id="ellipse194" data-name="ellipse19" class="st8" cx="1307.53" cy="452.15" rx="3.38" ry="2.12"/>
    <ellipse id="ellipse214" data-name="ellipse21" class="st8" cx="1349.78" cy="455.15" rx="3.38" ry="2.12"/>
    <ellipse id="ellipse234" data-name="ellipse23" class="st7" cx="1384.17" cy="441.52" rx="3.38" ry="2.13" transform="translate(-59.29 606.77) rotate(-24.22)"/>
    <ellipse id="ellipse254" data-name="ellipse25" class="st6" cx="1409.27" cy="414.79" rx="3.37" ry="2.12" transform="translate(296.61 1374) rotate(-57.16)"/>
    <path id="path274" data-name="path27" class="st0" d="M1289.9,444.4c2.25.5,3.75.5,3.75.5l-2.12,3.25-4.12-.12,2.5-3.62Z"/>
    <path id="path294" data-name="path29" class="st0" d="M1327.4,452.53l4.12-.25-.88,4.12h-3.12s.25-3.38-.12-3.88Z"/>
    <path id="path314" data-name="path31" class="st0" d="M1365.9,448.9s3.38-2.5,3.62-3.12.38,5,.5,5.38-2.25.88-2.25.88l-1.88-3.12Z"/>
    <path id="path334" data-name="path33" class="st0" d="M1395.28,431.03l2.75-3.88,2.88,4.38-2,1.88s-1.75-2.12-3.62-2.38Z"/>
    <path id="path354" data-name="path35" class="st0" d="M1416.82,399.57c.04-.09.08-.18.12-.27,3.27-7.25,5.89-14.77,7.21-18.06,1.33-3.33,1.83-11.17,1.33-12s-2-6.5-5.83-5.33-2.5,0-3.67,1.83-4,2-4.17.33.5-2.17,3.33-2.67,1.33-2.5-.67-4.33-7.33-1.83-3.5-4.33,4-2.83,5.5-1.67-3.17,2,1,4.5,7.17,4,8.5,4.17,2.5.33,2.5-1.17,1.67-3,2.67-3.83,1.5-4.17,1.5-4.17c0,0-3.5-3.17-.5-2.83s4.5.5,3,2.33c.33.5-.17,2,.17,2.5s5.33-.17,5.33-.17c0,0,4.5-.33,3,2.5-.33.83-1.5,2-3.5.67-1.83.33-3.67-.33-4.17-.17s-7.17,3.17-6.5,18.17c4.5-2.5,17.67-10.33,19.33-11s9.67-9.83,9.83-10.67-1.67-3.33-1.33-4,3.5-2,4.17-2.17,1.5-2,2.33.17.67,2.17,0,2.67-1.17.83-1,1.83.33,1.67.83,1.5.83.83.83.83l-6.67,5.33s6.17-1.17,7-2,2.5-1.67,2.83-.5.67.83,0,1.67-1.83,1.67-4,2.33-3.67,1.33-5,1.5-3.83,1-3.83,1c0,0-1.33.33-4,2.5s-4.5,3.17-6.17,4.17-2.83,1.33-4.5,2.5-4.5,2.5-4.5,2.5c0,0-2.5.83-3.17,1.67s-1.83,2.17-2.17,2.67-1,2.17-1,2.17l-.67,3-2.17,2.5-.5,2.33s4.17.5,5,.5,1.5,0,2.67-.83,1-.33,2-1.5,2.17-2.33,2.67-3.33,1.67-2.17,2.67-3,2.33-2,3-2.17,3-.83,3.5-1.33,1,0,1.33-.83,1.33-2.5,1.5-3.33.17-1.17.83-1.17,1.17-.33,1.5.5,1,.67.67,1.83-.67,1.83-.67,1.83l.17.33s1.5.5,2-.33,1.33-1.33,1.33-1.33l1-1.33.83-1.5.83-.67,1.5-.33s.5,0,.83,1.17.5,1.67.5,2.17-2,2-2,2l-.67.67s-1.5.33-2,.67-2.17.83-2.17.83l-2.33.17-1.67.83-.67.5v1s.67.83,1.17,1,3.5,0,3.5,0l.67-.17-1,1.33-3.33.67s-.83.17-1.67.33-3,.5-3,.5c0,0-1.83.83-2.5,1.33s-2,.17-.83,1,.33,1.33,4,1,1.33-.67,4.67.33,4,.67,6,1.67-1.33.33,4.33,2.17,5.5,1.67,9.33,3,3.33-.5,4.5,2,6.67,2.83,1.17,2.5-4.5-.33-7.33-1.33-2.5-1.17-6.67-2.67-6.67-3.67-2.17,1.5,5.5,5.67,6.17,10.17,1,14.17,5,14.5,7.5,1.33,5.17,3.33-6.17.67-7.33-1.17-3.67-3.5-4.17-6,.33-4.5-.5-4.83-.83-.33-1.67.33-.33-.83-1.5,1.83-1.5,3.17-2.17,3.5-4.17.83-4.17-.83.5-2.17,1.33-2.33-.67,1.33,2-1,3.83-4.17,4.17-5.17,2.17-5.5-5.67-11.17-13.67-9.17-20.83-5.83c2,3,5.67,5.33,5.5,11.33,0,.67,2.83,3-.33,4-.5.17-3.5.33-1.83-4,0-2.17.5-3.5-3.83-7.33.17,3.67-.17,7.33.17,8.67s3.17,4.5-.67,5.83c-2.17-.5-3.83-1.83-1.33-6,0-3.83-4-20.33-14.17-5-2.33-.67-3.5-1.5-3.5-1.5Z"/>
    <path id="path374" data-name="path37" class="st0" d="M1492.99,439.07"/>
    <line id="line394" data-name="line39" class="st2" x1="1268.15" y1="385.4" x2="1237.15" y2="425.9"/>
    <line id="line414" data-name="line41" class="st2" x1="1199.65" y1="325.9" x2="1201.15" y2="372.4"/>
    <line id="line434" data-name="line43" class="st2" x1="1215.15" y1="449.4" x2="1169.15" y2="507.4"/>
    <line id="line454" data-name="line45" class="st2" x1="1253.15" y1="440.65" x2="1268.65" y2="469.4"/>
    <line id="line474" data-name="line47" class="st2" x1="1352.65" y1="462.4" x2="1353.15" y2="490.9"/>
    <line id="line494" data-name="line49" class="st2" x1="1385.03" y1="443.47" x2="1429.65" y2="466.9"/>
    <line id="line514" data-name="line51" class="st2" x1="1396.65" y1="428.4" x2="1380.65" y2="376.4"/>
    <line id="line534" data-name="line53" class="st2" x1="1475.99" y1="398.24" x2="1474.65" y2="342.9"/>
    <text id="text554" data-name="text55" class="st5" transform="translate(1167.65 319.4)"><tspan x="0" y="0">Dendrite</tspan></text>
    <text id="text574" data-name="text57" class="st5" transform="translate(1263.65 383.9)"><tspan x="0" y="0">Cell body</tspan></text>
    <g id="text594" data-name="text59" class="st4">
      <text class="st5" transform="translate(1350.47 356.9)"><tspan x="0" y="0">Node of</tspan></text>
      <text class="st5" transform="translate(1350.93 373.7)"><tspan x="0" y="0">Ranvier</tspan></text>
    </g>
    <text id="text654" data-name="text65" class="st5" transform="translate(1423.83 333.9)"><tspan x="0" y="0">Axon Terminal</tspan></text>
    <text id="text674" data-name="text67" class="st5" transform="translate(1433.65 478.9)"><tspan x="0" y="0">Schwann cell</tspan></text>
    <text id="text694" data-name="text69" class="st5" transform="translate(1345.15 505.4)"><tspan x="0" y="0">Myelin sheath</tspan></text>
    <text id="text714" data-name="text71" class="st5" transform="translate(1265.65 483.4)"><tspan x="0" y="0">Axon</tspan></text>
    <text id="text734" data-name="text73" class="st5" transform="translate(1125.65 519.4)"><tspan x="0" y="0">Nucleus</tspan></text>
  </g>
  <g>
    <line class="st9" x1="456" y1="303.82" x2="549.94" y2="209.88"/>
    <path class="st10" d="M569.14,190.68c-5.68,12.39-11.17,29.32-12.06,42.33l-9.66-20.61-20.6-9.66c13.01-.89,29.94-6.38,42.33-12.07Z"/>
  </g>
  <g>
    <line class="st9" x1="456" y1="417.85" x2="541.84" y2="417.85"/>
    <path class="st10" d="M569,417.85c-12.78,4.74-28.63,12.83-38.46,21.4l7.74-21.4-7.74-21.4c9.83,8.57,25.68,16.66,38.46,21.4Z"/>
  </g>
  <g>
    <line class="st9" x1="456" y1="521.17" x2="549.94" y2="615.1"/>
    <path class="st10" d="M569.14,634.3c-12.39-5.68-29.32-11.17-42.33-12.06l20.61-9.66,9.66-20.6c.89,13.01,6.38,29.94,12.07,42.33Z"/>
  </g>
  <g>
    <line class="st9" x1="1012.52" y1="632.54" x2="1106.45" y2="538.61"/>
    <path class="st10" d="M1125.65,519.4c-5.68,12.39-11.17,29.32-12.06,42.33l-9.66-20.61-20.6-9.66c13.01-.89,29.94-6.38,42.33-12.07Z"/>
  </g>
  <g>
    <line class="st9" x1="1012.59" y1="417.85" x2="1098.43" y2="417.85"/>
    <path class="st10" d="M1125.59,417.85c-12.78,4.74-28.63,12.83-38.46,21.4l7.74-21.4-7.74-21.4c9.83,8.57,25.68,16.66,38.46,21.4Z"/>
  </g>
  <g>
    <line class="st9" x1="1012.52" y1="190.68" x2="1106.45" y2="284.61"/>
    <path class="st10" d="M1125.65,303.82c-12.39-5.68-29.32-11.17-42.33-12.06l20.61-9.66,9.66-20.6c.89,13.01,6.38,29.94,12.07,42.33Z"/>
  </g>
</svg>