<?xml version="1.0" encoding="utf-8" standalone="no"?>
<!DOCTYPE svg PUBLIC "-//W3C//DTD SVG 1.1//EN"
  "http://www.w3.org/Graphics/SVG/1.1/DTD/svg11.dtd">
<svg xmlns:xlink="http://www.w3.org/1999/xlink" width="281.52pt" height="137.376pt" viewBox="0 0 281.52 137.376" xmlns="http://www.w3.org/2000/svg" version="1.1">
 <metadata>
  <rdf:RDF xmlns:dc="http://purl.org/dc/elements/1.1/" xmlns:cc="http://creativecommons.org/ns#" xmlns:rdf="http://www.w3.org/1999/02/22-rdf-syntax-ns#">
   <cc:Work>
    <dc:type rdf:resource="http://purl.org/dc/dcmitype/StillImage"/>
    <dc:date>2026-09-08T19:17:07.631110</dc:date>
    <dc:format>image/svg+xml</dc:format>
    <dc:creator>
     <cc:Agent>
      <dc:title>Matplotlib v3.10.9, https://matplotlib.org/</dc:title>
     </cc:Agent>
    </dc:creator>
   </cc:Work>
  </rdf:RDF>
 </metadata>
 <defs>
  <style type="text/css">*{stroke-linejoin: round; stroke-linecap: butt}</style>
 </defs>
 <g id="figure_1">
  <g id="patch_1">
   <path d="M 0 137.376 
L 281.52 137.376 
L 281.52 0 
L 0 0 
L 0 137.376 
z
" style="fill: none"/>
  </g>
  <g id="axes_1">
   <g id="patch_2">
    <path d="M 16.02 99.18 
L 71.46 99.18 
L 71.46 49.284 
L 16.02 49.284 
L 16.02 99.18 
z
" clip-path="url(#pbb6f340a86)" style="fill: none; stroke: #1f56b0; stroke-width: 2.2; stroke-linejoin: miter"/>
   </g>
   <g id="text_1">
    <!-- x -->
    <g style="fill: #1f56b0" transform="translate(38.622734 30.225331) scale(0.17 -0.17)">
     <defs>
      <path id="DejaVuSansMono-Bold-78" d="M 3578 3500 
L 2400 1825 
L 3681 0 
L 2613 0 
L 1925 1178 
L 1241 0 
L 172 0 
L 1466 1825 
L 275 3500 
L 1344 3500 
L 1925 2456 
L 2509 3500 
L 3578 3500 
z
" transform="scale(0.015625)"/>
     </defs>
     <use xlink:href="#DejaVuSansMono-Bold-78"/>
    </g>
   </g>
   <g id="text_2">
    <!-- 4 -->
    <g style="fill: #1f56b0" transform="translate(38.622734 78.968094) scale(0.17 -0.17)">
     <defs>
      <path id="DejaVuSansMono-34" d="M 2297 4091 
L 825 1625 
L 2297 1625 
L 2297 4091 
z
M 2194 4666 
L 2925 4666 
L 2925 1625 
L 3547 1625 
L 3547 1113 
L 2925 1113 
L 2925 0 
L 2297 0 
L 2297 1113 
L 319 1113 
L 319 1709 
L 2194 4666 
z
" transform="scale(0.015625)"/>
     </defs>
     <use xlink:href="#DejaVuSansMono-34"/>
    </g>
   </g>
  </g>
 </g>
 <defs>
  <clipPath id="pbb6f340a86">
   <rect x="2.16" y="2.16" width="277.2" height="133.056"/>
  </clipPath>
 </defs>
</svg>
