<?xml version="1.0" encoding="utf-8" standalone="no"?>
<!DOCTYPE svg PUBLIC "-//W3C//DTD SVG 1.1//EN"
  "http://www.w3.org/Graphics/SVG/1.1/DTD/svg11.dtd">
<svg xmlns:xlink="http://www.w3.org/1999/xlink" width="208.08pt" height="116.964812pt" viewBox="0 0 208.08 116.964812" xmlns="http://www.w3.org/2000/svg" version="1.1">
 <metadata>
  <rdf:RDF xmlns:dc="http://purl.org/dc/elements/1.1/" xmlns:cc="http://creativecommons.org/ns#" xmlns:rdf="http://www.w3.org/1999/02/22-rdf-syntax-ns#">
   <cc:Work>
    <dc:type rdf:resource="http://purl.org/dc/dcmitype/StillImage"/>
    <dc:date>2026-09-04T17:21:33.427821</dc:date>
    <dc:format>image/svg+xml</dc:format>
    <dc:creator>
     <cc:Agent>
      <dc:title>Matplotlib v3.10.9, https://matplotlib.org/</dc:title>
     </cc:Agent>
    </dc:creator>
   </cc:Work>
  </rdf:RDF>
 </metadata>
 <defs>
  <style type="text/css">*{stroke-linejoin: round; stroke-linecap: butt}</style>
 </defs>
 <g id="figure_1">
  <g id="patch_1">
   <path d="M 0 116.964812 
L 208.08 116.964812 
L 208.08 0 
L 0 0 
L 0 116.964812 
z
" style="fill: none"/>
  </g>
  <g id="axes_1">
   <g id="patch_2">
    <path d="M 29.52 58.284813 
L 61.92 58.284813 
L 61.92 29.124813 
L 29.52 29.124813 
L 29.52 58.284813 
z
" clip-path="url(#pc2ee6b26d6)" style="fill: none; stroke: #1f56b0; stroke-width: 2.2; stroke-linejoin: miter"/>
   </g>
   <g id="text_1">
    <!-- x -->
    <g style="fill: #1f56b0" transform="translate(40.602734 16.517344) scale(0.17 -0.17)">
     <defs>
      <path id="DejaVuSansMono-Bold-78" d="M 3578 3500 
L 2400 1825 
L 3681 0 
L 2613 0 
L 1925 1178 
L 1241 0 
L 172 0 
L 1466 1825 
L 275 3500 
L 1344 3500 
L 1925 2456 
L 2509 3500 
L 3578 3500 
z
" transform="scale(0.015625)"/>
     </defs>
     <use xlink:href="#DejaVuSansMono-Bold-78"/>
    </g>
   </g>
   <g id="text_2">
    <!-- 4 -->
    <g style="fill: #1f56b0" transform="translate(40.602734 48.440906) scale(0.17 -0.17)">
     <defs>
      <path id="DejaVuSansMono-34" d="M 2297 4091 
L 825 1625 
L 2297 1625 
L 2297 4091 
z
M 2194 4666 
L 2925 4666 
L 2925 1625 
L 3547 1625 
L 3547 1113 
L 2925 1113 
L 2925 0 
L 2297 0 
L 2297 1113 
L 319 1113 
L 319 1709 
L 2194 4666 
z
" transform="scale(0.015625)"/>
     </defs>
     <use xlink:href="#DejaVuSansMono-34"/>
    </g>
   </g>
  </g>
 </g>
 <defs>
  <clipPath id="pc2ee6b26d6">
   <rect x="3.6" y="9.684813" width="200.88" height="103.68"/>
  </clipPath>
 </defs>
</svg>
